<?xml version="1.0" encoding="utf-8"?>
<!-- Generator: Adobe Illustrator 14.0.0, SVG Export Plug-In . SVG Version: 6.00 Build 43363)  -->
<!DOCTYPE svg PUBLIC "-//W3C//DTD SVG 1.1//EN" "http://www.w3.org/Graphics/SVG/1.1/DTD/svg11.dtd">
<svg version="1.1" id="Layer_1" xmlns="http://www.w3.org/2000/svg" xmlns:xlink="http://www.w3.org/1999/xlink" x="0px" y="0px"
	 width="50px" height="50px" viewBox="0 0 50 50" enable-background="new 0 0 50 50" xml:space="preserve">
<path fill="none" d="M36.983,11.892c0.092,0.579,0.546,1.033,1.124,1.124C37.749,12.624,37.375,12.25,36.983,11.892z"/>
<path fill="none" d="M39.65,11.417c-0.105-0.539-0.529-0.963-1.068-1.068C38.952,10.691,39.308,11.047,39.65,11.417z"/>
<path fill="none" d="M21.615,34.233c-0.248,0.052-0.644,0.3-0.644,1.688c0,0.643,0.099,1.634,0.644,1.683
	c0.594,0,0.693-0.94,0.693-1.683C22.309,34.533,21.912,34.233,21.615,34.233z"/>
<path fill="none" d="M25.727,34.233c-0.297,0-0.644,0.251-0.644,1.688c0,1.435,0.347,1.634,0.644,1.634
	c0.446,0,0.694-0.397,0.694-1.634C26.421,34.582,26.122,34.233,25.727,34.233z"/>
<polygon fill="none" points="17.603,33.442 17.107,35.97 17.603,35.97 18.098,35.97 17.603,33.394 "/>
<path fill="none" d="M29.788,34.233c-0.296,0-0.692,0.3-0.692,1.688c0,0.643,0.099,1.634,0.692,1.634
	c0.545,0,0.644-0.892,0.644-1.634C30.432,34.533,30.035,34.233,29.788,34.233z"/>
<path fill="none" d="M35.237,10.478v1.219c0,0.05,0,17.188,0,17.188c0,0.05-4.41-10.154-6.44-14.86
	c-0.593-1.387-0.99-2.329-0.99-2.329h-5.398c0,0-0.05,0.149-0.149,0.446c-1.09,2.625-6.985,16.742-6.985,16.742
	c0-0.049,0-17.188,0-17.188v-1.571C10.427,13.301,7.22,18.772,7.22,25c0,9.82,7.96,17.78,17.78,17.78S42.78,34.82,42.78,25
	C42.78,18.995,39.795,13.697,35.237,10.478z M22.259,25.022c0.645-1.437,2.973-6.836,2.922-6.787c0,0,2.278,5.25,3.615,8.371
	c0.596,1.34,1.041,2.278,0.991,2.278c-0.296,0-0.644,0-0.991,0c-0.693,0-1.337,0-1.98,0c0-0.049-1.436-3.467-1.436-3.467
	c-1.041,0-2.081,0-3.121,0c-0.05,0-0.099,0-0.199,0C22.111,25.418,22.161,25.269,22.259,25.022z M18.594,38.396l-0.248-1.287h-0.743
	H16.91l-0.298,1.287h-1.14l1.586-6.837h0.544h0.545l1.585,6.837H18.594z M23.3,38.396h-0.941v-0.594h-0.05
	c-0.148,0.347-0.397,0.644-0.693,0.742c-0.05,0-0.149,0-0.248,0c-1.04,0-1.485-1.189-1.485-2.675c0-1.238,0.347-2.626,1.485-2.626
	c0.099,0,0.198,0,0.248,0.051c0.247,0.049,0.396,0.197,0.644,0.495v-2.23H23.3V38.396z M25.727,38.545
	c-1.188,0-1.734-1.089-1.734-2.624c0-1.537,0.546-2.677,1.734-2.677s1.685,1.14,1.685,2.677
	C27.411,37.456,26.915,38.545,25.727,38.545z M30.035,38.545c-0.099,0-0.197,0-0.247,0c-0.296-0.099-0.495-0.297-0.692-0.742h-0.051
	v0.594h-0.941V31.56h1.041v2.279c0.148-0.347,0.396-0.495,0.644-0.544c0.101-0.051,0.148-0.051,0.247-0.051
	c1.089,0,1.487,1.14,1.487,2.626C31.522,37.406,31.124,38.545,30.035,38.545z M35.436,36.267H33.75h-0.643
	c0,1.14,0.347,1.288,0.643,1.288c0.249,0,0.496-0.05,0.597-0.595h1.038c-0.246,1.486-1.088,1.585-1.635,1.585c0,0,0,0-0.049,0
	c-0.594,0-1.683-0.198-1.683-2.624c0-1.688,0.692-2.626,1.731-2.677h0.051c0.693,0,1.635,0.397,1.635,2.776V36.267z"/>
<path fill="none" d="M33.75,34.233c-0.594,0.052-0.643,0.844-0.643,1.19h0.643h0.646C34.347,34.435,34.098,34.233,33.75,34.233z"/>
<path fill="#C3C3C3" d="M25.38,25.418c0,0,1.436,3.418,1.436,3.467c0.644,0,1.287,0,1.98,0c0.348,0,0.695,0,0.991,0
	c0.05,0-0.396-0.938-0.991-2.278c-1.337-3.121-3.615-8.371-3.615-8.371c0.05-0.049-2.278,5.35-2.922,6.787
	c-0.099,0.246-0.148,0.396-0.199,0.396c0.1,0,0.149,0,0.199,0C23.3,25.418,24.339,25.418,25.38,25.418z"/>
<path fill="#C3C3C3" d="M33.801,33.244H33.75c-1.039,0.051-1.731,0.989-1.731,2.677c0,2.426,1.089,2.624,1.683,2.624
	c0.049,0,0.049,0,0.049,0c0.547,0,1.389-0.099,1.635-1.585h-1.038c-0.101,0.545-0.348,0.595-0.597,0.595
	c-0.296,0-0.643-0.148-0.643-1.288h0.643h1.686v-0.246C35.436,33.642,34.494,33.244,33.801,33.244z M33.75,35.424h-0.643
	c0-0.347,0.049-1.139,0.643-1.19c0.348,0,0.597,0.201,0.646,1.19H33.75z"/>
<path fill="#C3C3C3" d="M25.727,33.244c-1.188,0-1.734,1.14-1.734,2.677c0,1.535,0.546,2.624,1.734,2.624s1.685-1.089,1.685-2.624
	C27.411,34.384,26.915,33.244,25.727,33.244z M25.727,37.555c-0.297,0-0.644-0.199-0.644-1.634c0-1.437,0.347-1.688,0.644-1.688
	c0.396,0,0.694,0.349,0.694,1.688C26.421,37.157,26.173,37.555,25.727,37.555z"/>
<path fill="#C3C3C3" d="M22.259,33.79c-0.248-0.298-0.397-0.446-0.644-0.495c-0.05-0.051-0.149-0.051-0.248-0.051
	c-1.139,0-1.485,1.388-1.485,2.626c0,1.485,0.446,2.675,1.485,2.675c0.099,0,0.198,0,0.248,0c0.296-0.099,0.545-0.396,0.693-0.742
	h0.05v0.594H23.3V31.56h-1.041V33.79z M21.615,37.604c-0.545-0.049-0.644-1.04-0.644-1.683c0-1.388,0.396-1.636,0.644-1.688
	c0.296,0,0.693,0.3,0.693,1.688C22.309,36.663,22.209,37.604,21.615,37.604z"/>
<path fill="#C3C3C3" d="M17.603,31.56h-0.544l-1.586,6.837h1.14l0.298-1.287h0.693h0.743l0.248,1.287h1.139l-1.585-6.837H17.603z
	 M17.603,35.97h-0.496l0.496-2.527v-0.049l0.496,2.576H17.603z"/>
<path fill="#C3C3C3" d="M30.035,33.244c-0.099,0-0.146,0-0.247,0.051c-0.247,0.049-0.495,0.197-0.644,0.544V31.56h-1.041v6.837
	h0.941v-0.594h0.051c0.197,0.445,0.396,0.644,0.692,0.742c0.05,0,0.148,0,0.247,0c1.089,0,1.487-1.139,1.487-2.675
	C31.522,34.384,31.124,33.244,30.035,33.244z M29.788,37.555c-0.594,0-0.692-0.991-0.692-1.634c0-1.388,0.396-1.688,0.692-1.688
	c0.247,0,0.644,0.3,0.644,1.688C30.432,36.663,30.333,37.555,29.788,37.555z"/>
<path fill="#C3C3C3" d="M35.237,7.842C32.24,6.049,28.746,5,25,5c-3.532,0-6.846,0.924-9.726,2.531C9.148,10.949,5,17.486,5,25
	c0,11.046,8.954,20,20,20s20-8.954,20-20C45,17.701,41.077,11.334,35.237,7.842z M25,42.78c-9.82,0-17.78-7.96-17.78-17.78
	c0-6.228,3.208-11.699,8.055-14.875v1.571c0,0,0,17.14,0,17.188c0,0,5.895-14.117,6.985-16.742c0.099-0.297,0.149-0.446,0.149-0.446
	h5.398c0,0,0.397,0.942,0.99,2.329c2.03,4.706,6.44,14.91,6.44,14.86c0,0,0-17.138,0-17.188v-1.219
	C39.795,13.697,42.78,18.995,42.78,25C42.78,34.82,34.82,42.78,25,42.78z"/>
</svg>
