<?xml version="1.0" encoding="utf-8"?>
<!-- Generator: Adobe Illustrator 14.0.0, SVG Export Plug-In . SVG Version: 6.00 Build 43363)  -->
<!DOCTYPE svg PUBLIC "-//W3C//DTD SVG 1.1//EN" "http://www.w3.org/Graphics/SVG/1.1/DTD/svg11.dtd">
<svg version="1.1" id="Layer_1" xmlns="http://www.w3.org/2000/svg" xmlns:xlink="http://www.w3.org/1999/xlink" x="0px" y="0px"
	 width="50px" height="50px" viewBox="0 0 50 50" enable-background="new 0 0 50 50" xml:space="preserve">
<path fill="#C3C3C3" d="M25,5C13.954,5,5,13.954,5,25s8.954,20,20,20s20-8.954,20-20S36.046,5,25,5z M25,42.78
	c-9.82,0-17.78-7.96-17.78-17.78S15.18,7.22,25,7.22S42.78,15.18,42.78,25S34.82,42.78,25,42.78z"/>
<path fill="#C3C3C3" d="M32.388,32.059c0,2.765-2.677,5.513-7.532,5.513c-4.258,0-7.855-1.728-7.855-4.492
	c0-2.821,3.276-5.515,7.535-5.515c0.456,0,0.897-0.017,1.319-0.017c-0.576-0.575-1.03-1.29-1.03-2.136
	c0-0.51,0.149-1.021,0.39-1.463c-0.241,0.016-0.476-0.031-0.715-0.031c-3.495,0-5.838-2.58-5.838-5.67
	c0-3.002,3.241-5.819,6.671-5.819H33l-1.711,1.699h-2.446c1.614,1.697,2.478,2.478,2.478,4.408c0,1.615-0.9,2.989-2.172,3.972
	c-1.219,0.966-1.457,1.374-1.457,2.19c0,0.696,1.318,1.901,2.02,2.388C31.727,28.513,32.388,29.836,32.388,32.059z M30.401,32.383
	c0-0.269-0.034-0.547-0.081-0.797c-0.327-1.273-1.478-1.904-3.074-3c-0.575-0.188-1.223-0.313-1.898-0.313
	c-2.937-0.031-5.582,1.798-5.582,3.989c0,2.245,2.137,4.089,5.074,4.089C28.961,36.352,30.401,34.602,30.401,32.383z M28.57,18.656
	c-0.341-2.597-2.219-4.667-4.191-4.732c-1.984-0.052-3.305,1.932-2.969,4.51c0.342,2.599,2.226,4.752,4.191,4.805
	C27.586,23.306,28.914,21.254,28.57,18.656z"/>
</svg>
