<?xml version="1.0" encoding="utf-8"?>
<!-- Generator: Adobe Illustrator 14.0.0, SVG Export Plug-In . SVG Version: 6.00 Build 43363)  -->
<!DOCTYPE svg PUBLIC "-//W3C//DTD SVG 1.1//EN" "http://www.w3.org/Graphics/SVG/1.1/DTD/svg11.dtd">
<svg version="1.1" xmlns="http://www.w3.org/2000/svg" xmlns:xlink="http://www.w3.org/1999/xlink" x="0px" y="0px" width="182px"
	 height="72px" viewBox="0 0 182 72" enable-background="new 0 0 182 72" xml:space="preserve">
<g id="logo-frame">
	<rect fill="none" width="182" height="72"/>
</g>
<g id="logo">
	<g>
		<path fill="#96BD0D" d="M70.831,35.998c0,19.335-15.667,35.002-35,35.002c-19.327,0-35-15.667-35-35.002
			C0.831,16.667,16.504,1,35.831,1C55.164,1,70.831,16.667,70.831,35.998"/>
		<path fill="#FFFFFF" d="M0.416,25.882h4.365v2.696h0.131c1.163-2.056,3.35-3.307,5.536-3.307c3.304,0,4.668,1.59,5.372,3.532
			c1.313-2.243,3.039-3.532,5.82-3.532c3.266,0,5.635,1.683,5.635,6.134v17.544h-4.651V33.121c0-3.039-0.898-4.161-2.773-4.161
			c-1.895,0-3.703,1.46-3.703,4.504v15.485h-4.614V33.121c0-3.039-0.908-4.161-2.846-4.161c-1.887,0-3.642,1.498-3.642,4.504v15.485
			h-4.63V25.882z"/>
		<path fill="#FFFFFF" d="M47.031,44.149c0,0.857,0.522,1.619,1.209,1.619c0.351,0,0.592-0.039,0.777-0.119v3
			c-0.561,0.301-1.375,0.559-2.283,0.559c-2.05,0-3.775-0.822-3.899-3.044h-0.082c-1.236,2.274-2.996,3.38-5.74,3.38
			c-3.735,0-6.005-2.018-6.005-6.471c0-5.153,2.27-6.212,5.354-7.251l3.596-0.986c1.683-0.467,2.709-0.933,2.709-2.954
			c0-2.101-0.729-3.435-3.17-3.435c-3.098,0-3.523,2.186-3.523,4.412h-4.365c0-4.921,2.021-7.59,8.1-7.59
			c4.076,0,7.323,1.592,7.323,5.673V44.149z M42.667,36.763c-1.287,0.953-3.735,1.473-5.14,2.155
			c-1.335,0.645-1.895,2.011-1.895,3.729c0,1.93,0.954,3.477,2.873,3.477c2.786,0,4.161-2.069,4.161-5.495V36.763z"/>
		<rect x="51.954" y="18.332" fill="#FFFFFF" width="4.63" height="30.619"/>
		<path fill="#FFFFFF" d="M61.458,18.332h4.633v4.287h-4.633V18.332z M61.458,25.885h4.633V48.95h-4.633V25.885z"/>
		<path fill="#485258" d="M77.415,41.665c0.211,4.104,3.365,6.481,7.336,6.481c2.895,0,7.039-0.866,7.039-4.71
			c0-7.514-15.243-2.332-15.243-11.399c0-4.361,4.276-5.698,8.03-5.698c4.668,0,8.21,2.027,8.21,7.081h-1.646
			c0-4.014-2.845-5.656-6.564-5.656c-2.975,0-6.386,1.122-6.386,4.273c0,3.584,3.797,4.063,7.383,4.88
			c4.404,0.818,7.856,1.899,7.856,6.52c0,4.793-4.794,6.131-8.68,6.131c-5.051,0-8.853-2.719-8.981-7.902H77.415z"/>
		<path fill="#485258" d="M105.558,28.279h-4.831v15.505c0,3.543,1.683,3.971,4.791,3.84v1.428c-3.282,0.215-6.653-0.26-6.437-5.268
			V28.279h-4.102v-1.423h4.102V19.94h1.646v6.916h4.831V28.279z"/>
		<path fill="#485258" d="M126.155,49.051h-1.645v-4.749h-0.084c-1.165,3.325-4.45,5.266-7.947,5.266
			c-7.813,0-7.902-6.26-7.902-8.981V26.855h1.644V40.89c0,2.245,0.257,7.256,6.305,7.256c5.009,0,7.985-3.889,7.985-9.285V26.855
			h1.645V49.051z"/>
		<path fill="#485258" d="M148.128,44.3h-0.092c-1.852,3.5-4.533,5.267-8.508,5.267c-6.693,0-9.582-5.483-9.582-11.569
			c0-6.565,3.197-11.659,9.891-11.659c3.629,0,7.037,1.984,8.199,5.482h0.092V19.94h1.637v29.11h-1.637V44.3z M148.083,37.997
			c0-5.182-2.552-10.232-8.246-10.232c-5.873,0-8.25,4.877-8.25,10.232c0,5.226,2.592,10.148,8.291,10.148
			C145.488,48.146,148.083,43.092,148.083,37.997"/>
		<path fill="#485258" d="M155.379,19.94h1.634v2.729h-1.634V19.94z M155.379,26.852h1.634v22.199h-1.634V26.852z"/>
		<path fill="#485258" d="M171.389,26.338c6.567,0,10.196,5.308,10.196,11.614c0,6.35-3.629,11.614-10.196,11.614
			c-6.562,0-10.19-5.265-10.19-11.614C161.198,31.646,164.827,26.338,171.389,26.338 M171.389,48.146
			c5.53,0,8.554-4.88,8.554-10.193c0-5.311-3.023-10.19-8.554-10.19c-5.528,0-8.548,4.879-8.548,10.19
			C162.841,43.266,165.86,48.146,171.389,48.146"/>
	</g>
</g>
</svg>
