<?xml version="1.0" encoding="utf-8"?>
<!-- Generator: Adobe Illustrator 14.0.0, SVG Export Plug-In . SVG Version: 6.00 Build 43363)  -->
<!DOCTYPE svg PUBLIC "-//W3C//DTD SVG 1.1//EN" "http://www.w3.org/Graphics/SVG/1.1/DTD/svg11.dtd">
<svg version="1.1" id="Layer_1" xmlns="http://www.w3.org/2000/svg" xmlns:xlink="http://www.w3.org/1999/xlink" x="0px" y="0px"
	 width="50px" height="50px" viewBox="0 0 50 50" enable-background="new 0 0 50 50" xml:space="preserve">
<path fill="none" d="M36.983,11.892c0.092,0.579,0.546,1.033,1.124,1.124C37.749,12.624,37.375,12.25,36.983,11.892z"/>
<polygon fill="none" points="23.599,18.673 23.599,23.363 18.908,23.363 18.908,26.514 23.597,26.514 23.597,31.203 26.749,31.203 
	26.749,26.514 31.438,26.514 31.438,23.363 26.749,23.363 26.749,18.673 "/>
<path fill="none" d="M39.65,11.417c-0.105-0.539-0.529-0.963-1.068-1.068C38.952,10.691,39.308,11.047,39.65,11.417z"/>
<path fill="none" d="M7.22,25c0,9.82,7.96,17.78,17.78,17.78S42.78,34.82,42.78,25c0-3.962-1.312-7.608-3.502-10.563
	c-0.3,0.104-0.62,0.167-0.956,0.167c-1.614,0-2.926-1.312-2.926-2.926c0-0.336,0.063-0.656,0.167-0.956
	C32.607,8.531,28.962,7.22,25,7.22C15.18,7.22,7.22,15.18,7.22,25z M35.918,24.998c0,6.025-4.892,10.918-10.918,10.918
	c-6.025,0-10.917-4.893-10.917-10.918c0-6.025,4.892-10.916,10.917-10.916C31.026,14.082,35.918,18.973,35.918,24.998z"/>
<path fill="#C3C3C3" d="M14.083,24.998c0,6.025,4.892,10.918,10.917,10.918c6.026,0,10.918-4.893,10.918-10.918
	c0-6.025-4.892-10.916-10.918-10.916C18.975,14.082,14.083,18.973,14.083,24.998z M31.438,23.363v3.151h-4.688v4.689h-3.152v-4.689
	h-4.689v-3.151h4.691v-4.69h3.15v4.69H31.438z"/>
<path fill="#C3C3C3" d="M40.947,12.966c0.191-0.39,0.301-0.826,0.301-1.289c0-1.615-1.312-2.925-2.926-2.925
	c-0.462,0-0.898,0.11-1.287,0.301C33.684,6.52,29.524,5,25,5C13.954,5,5,13.954,5,25s8.954,20,20,20s20-8.954,20-20
	C45,20.476,43.48,16.316,40.947,12.966z M42.78,25c0,9.82-7.96,17.78-17.78,17.78S7.22,34.82,7.22,25S15.18,7.22,25,7.22
	c3.962,0,7.607,1.312,10.563,3.501c-0.104,0.3-0.167,0.62-0.167,0.956c0,1.615,1.312,2.926,2.926,2.926
	c0.336,0,0.656-0.063,0.956-0.167C41.469,17.392,42.78,21.038,42.78,25z M37.076,11.135c0.177-0.402,0.544-0.703,0.987-0.788
	c0.084-0.016,0.169-0.025,0.257-0.025c0.09,0,0.177,0.01,0.262,0.026c0.539,0.105,0.963,0.529,1.068,1.068
	c0.017,0.085,0.026,0.172,0.026,0.262c0,0.088-0.008,0.173-0.024,0.257c-0.084,0.443-0.386,0.81-0.788,0.987
	c-0.167,0.073-0.351,0.114-0.544,0.114c-0.073,0-0.143-0.01-0.213-0.021c-0.578-0.091-1.032-0.545-1.124-1.124
	c-0.011-0.07-0.021-0.14-0.021-0.212C36.962,11.486,37.003,11.302,37.076,11.135z"/>
</svg>
