<?xml version="1.0" encoding="utf-8"?>
<!-- Generator: Adobe Illustrator 14.0.0, SVG Export Plug-In . SVG Version: 6.00 Build 43363)  -->
<!DOCTYPE svg PUBLIC "-//W3C//DTD SVG 1.1//EN" "http://www.w3.org/Graphics/SVG/1.1/DTD/svg11.dtd">
<svg version="1.1" id="Layer_1" xmlns="http://www.w3.org/2000/svg" xmlns:xlink="http://www.w3.org/1999/xlink" x="0px" y="0px"
	 width="50px" height="50px" viewBox="0 0 50 50" enable-background="new 0 0 50 50" xml:space="preserve">
<g>
	<g>
		<path fill-rule="evenodd" clip-rule="evenodd" fill="#C3C3C3" d="M25,17.924c-3.877,0-7.034,3.155-7.034,7.034
			c0,3.873,3.157,7.034,7.034,7.034c3.879,0,7.034-3.161,7.034-7.034C32.034,21.08,28.879,17.924,25,17.924z M31.484,27.101
			c-0.021,0.066-0.044,0.122-0.07,0.184c-0.262,0-0.527,0-0.799,0c0.01-0.726,0.239-1.229,0.207-1.998c0.33,0,0.658,0,0.992,0
			c-0.043,0.485-0.1,0.966-0.197,1.389C31.574,26.817,31.53,26.961,31.484,27.101z M29.184,30.354
			c-0.258,0.117-0.563,0.188-0.914,0.22c0.353-0.407,0.75-0.782,1.102-1.199c0.2,0,0.398,0,0.6,0
			c-0.037,0.165-0.093,0.311-0.17,0.44C29.605,30.003,29.398,30.19,29.184,30.354z M31.668,24.385
			c0.034,0.105,0.129,0.229,0.164,0.341c0,0.045,0,0.084,0,0.127c0,0.012-0.006,0.023-0.018,0.035c-0.348,0-0.696,0-1.044,0
			C30.595,24.441,31.152,24.314,31.668,24.385z M30.566,23.089c0.101-0.116,0.151-0.284,0.398-0.251
			c0.031,0.226,0.332,0.645-0.047,0.703C30.88,23.303,30.817,22.966,30.566,23.089z M31.467,23.689
			c0.178-0.031,0.154,0.145,0.154,0.297C31.34,24.044,31.336,23.779,31.467,23.689z M27.824,30.522
			c-0.397,0.138-0.84,0.001-1.399,0.052c0.185-0.384,0.438-0.688,0.649-1.044c0.539-0.08,1.172-0.251,1.697-0.052
			c0.021,0.206-0.235,0.372-0.399,0.548C28.208,30.2,28.059,30.447,27.824,30.522z M28.075,30.974
			c-0.181,0.084-0.392,0.149-0.649,0.154C27.494,30.92,27.816,30.986,28.075,30.974z M27.121,30.922
			c-0.007,0.206-0.22,0.15-0.297,0.052C26.835,30.868,27.036,30.954,27.121,30.922z M26.477,31.128c-0.044-0.148-0.044-0.16,0-0.305
			c0.052,0,0.104,0,0.152,0C26.723,30.92,26.699,31.196,26.477,31.128z M27.572,22.439c-0.449-0.249-0.854-0.539-1.599-0.498
			c0.046-0.306,0.093-0.604,0.156-0.897c0.102-0.083,0.383-0.246,0.5-0.152C27.103,21.244,27.426,21.752,27.572,22.439z
			 M26.876,19.594c0-0.032,0-0.064,0-0.097c0.04,0.008,0.048-0.023,0.052-0.051C27.027,19.427,27.003,19.673,26.876,19.594z
			 M28.621,21.793c0.38-0.037,0.797-0.222,0.897,0.2c-0.101,0.235-0.336,0.293-0.546,0.296c-0.188,0.007-0.352-0.155-0.549-0.148
			c-0.225,0.005-0.271,0.146-0.504,0.148c-0.218-0.406-0.35-0.914-0.541-1.347c0.266-0.02,0.609,0.325,0.844,0.501
			c0.247-0.115,0.399-0.551,0.652-0.501C28.762,21.173,28.431,21.418,28.621,21.793z M25.276,21.742
			c0.16-0.024,0.198,0.071,0.304,0.1c0.047,0.281-0.189,0.278-0.251,0.448C25.217,22.205,25.311,21.912,25.276,21.742z
			 M25.276,20.892c0.002-0.137,0.236-0.117,0.304-0.047C25.579,20.98,25.345,20.962,25.276,20.892z M26.477,24.488
			c0.152,0.011,0.082,0.248,0.104,0.4c-0.42-0.035-0.967,0.063-1.304-0.052C25.521,24.562,26.12,24.647,26.477,24.488z
			 M25.779,20.046c0-0.052,0-0.103,0-0.15c0.05,0,0.1,0,0.146,0c0.018,0.082-0.047,0.083-0.047,0.15
			C25.845,20.046,25.809,20.046,25.779,20.046z M26.876,25.333c0.203,0.479,0.222,1.471,0,1.951c-0.528,0-1.067,0-1.6,0
			c0-0.669,0-1.335,0-1.998C25.797,25.315,26.441,25.222,26.876,25.333z M25.276,27.531c0.556,0.034,1.234-0.06,1.703,0.052
			c0.235,0.264,0.165,1.084,0.095,1.495c-0.499,0.111-1.213,0.017-1.798,0.052C25.276,28.597,25.276,28.059,25.276,27.531z
			 M26.324,19.298c0.246,0.001,0.372,0.129,0.352,0.398C26.478,19.779,26.301,19.587,26.324,19.298z M26.372,19.146
			c0.046-0.229-0.118-0.241-0.095-0.447c0.165-0.006,0.352-0.018,0.398,0.096C26.759,18.927,26.535,19.099,26.372,19.146z
			 M26.277,19.544c0.036,0.139-0.096,0.103-0.097,0.199c-0.147-0.073-0.415-0.223-0.255-0.445
			C26.139,19.28,26.16,19.462,26.277,19.544z M25.926,18.847c-0.13,0.068-0.336-0.138-0.346-0.348
			C25.765,18.349,26.073,18.659,25.926,18.847z M25.83,19.146c-0.372,0.035-0.474-0.19-0.601-0.398
			C25.515,18.595,25.724,18.947,25.83,19.146z M26.723,29.53c-0.158,0.332-0.279,0.715-0.594,0.895
			c-0.689,0.041-1.132-0.164-1.053-0.895C25.627,29.53,26.181,29.53,26.723,29.53z M27.379,29.13
			c0.375-0.582,1.078-1.283,1.792-1.599c0.036-0.013,0.241,0.011,0.348,0c0.4,0.507,0.033,1.288-0.348,1.599
			C28.574,29.13,27.972,29.13,27.379,29.13z M29.275,27.284c0.278-0.803,0.459-1.705,1.197-2.048
			c0.155,0.074,0.074,0.402,0.047,0.596C30.426,26.441,30.077,27.409,29.275,27.284z M29.623,22.837
			c0.165,0.035,0.449,0.318,0.193,0.451c-0.164,0.039-0.06-0.205-0.245-0.147C29.561,23.014,29.559,22.896,29.623,22.837z
			 M29.919,23.289c0.202-0.006,0.218,0.183,0.202,0.4C29.98,23.629,29.968,23.44,29.919,23.289z M23.283,29.581
			c0.446-0.117,1.113-0.023,1.646-0.051c-0.017,0.362,0.07,0.83-0.148,0.992C23.986,30.698,23.518,30.126,23.283,29.581z
			 M24.678,31.077c-0.115-0.02-0.114-0.137-0.047-0.207C24.747,30.894,24.746,31.011,24.678,31.077z M21.886,30.174
			c0.249-0.114,0.715-0.013,1.046-0.052c-0.009-0.119-0.281-0.415-0.446-0.541c0.622-0.252,1.044,0.563,0.696,0.993
			C22.592,30.597,22.015,30.612,21.886,30.174z M22.582,31.128c-0.252,0-0.518,0.022-0.646-0.103
			C22.052,30.964,22.615,30.874,22.582,31.128z M19.391,23.289c-0.126-0.093-0.036-0.398,0.049-0.451
			C19.604,22.919,19.505,23.204,19.391,23.289z M18.291,24.984c0.059-0.706-0.073-1.605,0.398-1.896
			C19.322,23.622,19.486,24.881,18.291,24.984z M18.291,25.236c0.244-0.008,0.479-0.011,0.598,0.097
			c-0.105,1.012,0.701,1.102,0.75,1.951c-0.332,0-0.668,0-0.996,0C18.418,26.704,18.233,26.09,18.291,25.236z M19.687,27.531
			c0.275,0.556,0.715,0.948,0.8,1.698c-1.126-0.005-1.398-0.867-1.695-1.698C19.088,27.531,19.391,27.531,19.687,27.531z
			 M20.037,27.583c0.563-0.096,0.628,0.732,0.75,1.248C20.389,28.563,20.315,27.967,20.037,27.583z M21.034,29.026
			c0.01,0.206-0.095,0.273-0.247,0.203c0-0.087,0-0.164,0-0.255C20.904,28.964,20.977,28.988,21.034,29.026z M19.99,27.284
			c-0.035,0-0.07,0-0.104,0c0-0.049,0-0.102,0-0.153c0.068,0.015,0.08,0.085,0.15,0.104C20.049,27.274,20.018,27.282,19.99,27.284z
			 M21.834,30.574c-0.988,0.061-1.372-0.491-1.747-1.044C21.193,29.276,21.432,30.22,21.834,30.574z M21.736,24.437
			c-0.805-0.045-1.413-0.287-2.098-0.451c-0.025-0.492,0.041-0.891,0.248-1.148c0.229-0.023,0.303,0.104,0.452,0.152
			c0.108-0.552,1.128-0.199,1.695-0.301C22.006,23.341,21.867,23.89,21.736,24.437z M22.034,21.091
			c0.105-0.211,0.353-0.28,0.698-0.246c-0.164,0.584-0.363,1.131-0.646,1.594c-0.562-0.052-1.346,0.117-1.747-0.098
			C20.678,21.756,21.068,20.72,22.034,21.091z M21.435,19.594c0.012-0.085,0.088-0.111,0.199-0.097
			C21.657,19.65,21.511,19.673,21.435,19.594z M22.833,19.446c0,0.133,0,0.264,0,0.4c0.197-0.055,0.355-0.149,0.601-0.149
			c-0.138,0.38-0.373,0.66-0.601,0.949c-0.6,0.033-0.541-0.594-0.851-0.852C22.099,19.509,22.463,19.474,22.833,19.446z
			 M22.732,19.146c0.044-0.105,0.124-0.176,0.301-0.151C22.99,19.103,22.908,19.171,22.732,19.146z M23.981,18.995
			c-0.015-0.162,0.06-0.236,0.199-0.247C24.194,18.912,24.121,18.987,23.981,18.995z M24.232,18.995c0.047,0,0.097,0,0.148,0
			C24.639,19.357,23.975,19.357,24.232,18.995z M24.877,19.345c0,0.417,0,0.832,0,1.249c-0.528,0-1.063,0-1.594,0
			C23.295,19.657,24.002,19.416,24.877,19.345z M24.877,19.146c-0.116,0-0.232,0-0.349,0c0.009-0.211,0.184-0.252,0.252-0.398
			C24.976,18.715,24.84,19.02,24.877,19.146z M24.877,20.845c0,0.528,0,1.064,0,1.594c-0.812,0-1.629,0-2.443,0
			c0.158-0.591,0.346-1.152,0.65-1.594C23.682,20.845,24.279,20.845,24.877,20.845z M23.33,25.833
			c-0.034-0.275-0.293-0.45-0.696-0.499c0.649-0.117,1.515-0.014,2.243-0.047c0,0.663,0,1.329,0,1.998c-0.797,0-1.594,0-2.392,0
			C22.451,26.697,23.403,26.418,23.33,25.833z M22.485,27.635c0.606-0.233,1.621-0.046,2.392-0.104c0,0.527,0,1.065,0,1.599
			c-0.598,0-1.195,0-1.793,0C22.791,28.748,22.428,28.188,22.485,27.635z M22.732,29.13c-0.257,0.095-0.478,0.018-0.646-0.104
			c-0.104-0.336-0.137-0.771,0.049-1.043C22.51,28.189,22.553,28.728,22.732,29.13z M22.086,24.888
			c-0.104-0.762-0.021-1.746,0.348-2.199c0.768,0,1.529,0,2.295,0c-0.001,0.45-0.286,0.712-0.25,1.051
			c0.047,0.383,0.571,0.595,0.502,1.096C24.115,24.95,23.035,24.853,22.086,24.888z M30.59,28.878
			c-0.258,0.234-0.586,0.384-1.071,0.252c0.38-0.768,0.593-1.705,1.751-1.702c0.003,0.115,0,0.214-0.023,0.302
			C31.059,28.134,30.848,28.524,30.59,28.878z"/>
		<path fill-rule="evenodd" clip-rule="evenodd" fill="#C3C3C3" d="M25.779,18.646C25.852,18.619,25.772,18.585,25.779,18.646
			L25.779,18.646z"/>
		<path fill-rule="evenodd" clip-rule="evenodd" fill="#C3C3C3" d="M25.779,18.646C25.706,18.677,25.785,18.708,25.779,18.646
			L25.779,18.646z"/>
		<path fill-rule="evenodd" clip-rule="evenodd" fill="#C3C3C3" d="M26.477,19.498C26.535,19.694,26.535,19.298,26.477,19.498
			L26.477,19.498z"/>
		<path fill-rule="evenodd" clip-rule="evenodd" fill="#C3C3C3" d="M24.329,20.142c0.032,0,0.067,0,0.103,0c0-0.129,0-0.264,0-0.398
			C24.232,19.715,24.373,20.019,24.329,20.142z"/>
		<path fill-rule="evenodd" clip-rule="evenodd" fill="#C3C3C3" d="M29.723,23.089C29.699,23.069,29.75,23.12,29.723,23.089
			L29.723,23.089z"/>
	</g>
	<polygon fill-rule="evenodd" clip-rule="evenodd" fill="#C3C3C3" points="16.874,33.542 16.874,25.949 13,25.949 13,33.542 
		13,36.795 13,37.415 32.034,37.415 32.034,33.542 	"/>
	<polygon fill-rule="evenodd" clip-rule="evenodd" fill="#C3C3C3" points="33.121,16.459 33.121,24.047 37,24.047 37,16.459 
		37,13.206 37,12.583 17.966,12.583 17.966,16.459 	"/>
</g>
<path fill="#C3C3C3" d="M25,5C13.954,5,5,13.954,5,25s8.954,20,20,20s20-8.954,20-20S36.046,5,25,5z M25,42.78
	c-9.82,0-17.78-7.96-17.78-17.78S15.18,7.22,25,7.22S42.78,15.18,42.78,25S34.82,42.78,25,42.78z"/>
</svg>
