<?xml version="1.0" encoding="utf-8"?>
<!-- Generator: Adobe Illustrator 14.0.0, SVG Export Plug-In . SVG Version: 6.00 Build 43363)  -->
<!DOCTYPE svg PUBLIC "-//W3C//DTD SVG 1.1//EN" "http://www.w3.org/Graphics/SVG/1.1/DTD/svg11.dtd">
<svg version="1.1" id="Layer_1" xmlns="http://www.w3.org/2000/svg" xmlns:xlink="http://www.w3.org/1999/xlink" x="0px" y="0px"
	 width="32px" height="32px" viewBox="0 0 32 32" enable-background="new 0 0 32 32" xml:space="preserve">
<circle fill="#FFFFFF" cx="16" cy="16" r="16"/>
<g>
	<path fill="#535D64" d="M18.886,17.079c0.12,0.102,0.22,0.212,0.361,0.313c0.202,0.161,0.475,0.363,0.818,0.595
		c0.342,0.242,0.565,0.394,0.666,0.474c0.424,0.313,0.737,0.576,0.948,0.788c0.323,0.322,0.604,0.656,0.848,1.009
		c0.253,0.354,0.443,0.696,0.595,1.05c0.142,0.354,0.214,0.687,0.183,1.009c-0.021,0.322-0.142,0.595-0.363,0.818
		c-0.222,0.221-0.495,0.342-0.818,0.361c-0.313,0.021-0.654-0.039-0.999-0.19c-0.352-0.142-0.707-0.344-1.049-0.595
		c-0.354-0.243-0.687-0.525-1.009-0.848c-0.212-0.214-0.474-0.526-0.777-0.94c-0.101-0.131-0.252-0.353-0.474-0.665
		c-0.222-0.323-0.403-0.575-0.565-0.787c-0.161-0.201-0.292-0.353-0.444-0.505c-2.088,1.101-4.732,0.768-6.498-0.988
		c-2.16-2.17-2.16-5.691,0-7.851c2.169-2.169,5.681-2.169,7.85,0C20.046,12.014,20.287,14.92,18.886,17.079z M16.735,11.55
		c-1.383-1.383-3.623-1.383-4.995,0c-1.383,1.382-1.383,3.612,0,4.995c1.372,1.382,3.612,1.382,4.995,0
		C18.107,15.162,18.107,12.932,16.735,11.55z"/>
</g>
</svg>
