<?xml version="1.0" encoding="utf-8"?>
<!-- Generator: Adobe Illustrator 14.0.0, SVG Export Plug-In . SVG Version: 6.00 Build 43363)  -->
<!DOCTYPE svg PUBLIC "-//W3C//DTD SVG 1.1//EN" "http://www.w3.org/Graphics/SVG/1.1/DTD/svg11.dtd">
<svg version="1.1" id="Layer_1" xmlns="http://www.w3.org/2000/svg" xmlns:xlink="http://www.w3.org/1999/xlink" x="0px" y="0px"
	 width="50px" height="50px" viewBox="0 0 50 50" enable-background="new 0 0 50 50" xml:space="preserve">
<path fill="#C3C3C3" d="M45,25c0,11.041-8.98,20-20,20C13.96,45,5,36.04,5,25C5,13.98,13.96,5,25,5C36.02,5,45,13.98,45,25z
	 M17.2,41.18C14.34,33.4,11.5,25.6,8.66,17.82C7.68,20.04,7.22,22.4,7.22,25C7.22,32.06,11.24,38.3,17.2,41.18z M20.56,35.74
	l3.62-11.661l-2.52-6.819l-1.841-0.16c-0.999-0.04-0.88-2.5,0.12-2.44c0,0,2.92,0.24,4.66,0.24c1.881,0,4.76-0.24,4.76-0.24
	c1.001-0.06,1.12,2.34,0.12,2.44c0,0-0.56,0.3-1.64,0.34l6.06,16.74c0,0,2.801-7.02,2.801-10c0-2.2-0.4-3.7-1.101-4.92
	c-0.899-1.48-1.8-2.72-1.8-4.2c0-2.38,1.939-3.38,3.3-3.16c-3.2-2.94-7.439-4.68-12.1-4.68c-6.261,0-11.761,3.16-14.94,8.041
	c0.42,0.02,0.8,0.02,1.16,0.02c1.84,0,4.74-0.22,4.74-0.22c1-0.04,1.12,2.1,0.12,2.22c0,0-1.24,0.12-2.341,0.16L20.56,35.74z
	 M25.26,27.92c-1.601,4.721-3.22,9.439-4.84,14.2c1.439,0.44,3,0.66,4.58,0.66c1.899,0,3.699-0.32,5.42-0.9L25.26,27.92z M39.82,25
	c-1.961,5.161-3.9,10.38-5.841,15.561c5.341-3.08,8.8-8.98,8.8-15.561c0-3.08-0.7-5.919-2.1-8.5C41.3,21.26,40.3,23.72,39.82,25z"/>
</svg>
